# xmcd
#
# Track frame offsets:
# 150
# 12230
# 27117
# 41687
# 51950
# 68255
# 82757
# 96800
# 108482
# 120020
# 132902
# 148882
# 164882
# 175980
#
# Disc length: 2533 seconds
#
#
# Revision: 2
# Processed by: cddbd v1.5.1PL2 Copyright (c) Steve Scherf et al.
# Submitted via: FreeRIP 2.944 
#
DISCID=b209e30e
DTITLE=Tibagi e Miltinho - Luar do Sertão
DYEAR=1967
DGENRE=Sertanejo
TTITLE0=Passarinho do peito amarelo
TTITLE1=Noite tenebrosa
TTITLE2=O ginete
TTITLE3=Lembranças de amor
TTITLE4=A pombinha branca voltou
TTITLE5=Quero que vá tudo pro inferno
TTITLE6=Podre do podre
TTITLE7=Que dirão meus amigos
TTITLE8=Noite fria
TTITLE9=Ficar ou partir
TTITLE10=Eu te amo e tu me desprezas
TTITLE11=Saibas que te amo
TTITLE12=Entre nós está tudo terminado
TTITLE13=De mim tão distante
EXTD=
EXTT0=
EXTT1=
EXTT2=
EXTT3=
EXTT4=
EXTT5=
EXTT6=
EXTT7=
EXTT8=
EXTT9=
EXTT10=
EXTT11=
EXTT12=
EXTT13=
PLAYORDER=
